<?xml version="1.0" encoding="UTF-8" standalone="no"?>
<svg
   xmlns:dc="http://purl.org/dc/elements/1.1/"
   xmlns:cc="http://creativecommons.org/ns#"
   xmlns:rdf="http://www.w3.org/1999/02/22-rdf-syntax-ns#"
   xmlns:svg="http://www.w3.org/2000/svg"
   xmlns="http://www.w3.org/2000/svg"
   xmlns:sodipodi="http://sodipodi.sourceforge.net/DTD/sodipodi-0.dtd"
   xmlns:inkscape="http://www.inkscape.org/namespaces/inkscape"
   width="210mm"
   height="297mm"
   viewBox="0 0 210 297"
   version="1.1"
   id="svg913"
   inkscape:version="1.0.1 (3bc2e813f5, 2020-09-07)"
   sodipodi:docname="Path Book Cover.svg">
  <defs
     id="defs907">
    <meshgradient
       inkscape:collect="always"
       id="meshgradient964"
       gradientUnits="userSpaceOnUse"
       x="36.952839"
       y="13.299669">
      <meshrow
         id="meshrow966">
        <meshpatch
           id="meshpatch968">
          <stop
             path="c 36.9788,0  73.9576,0  110.936,0"
             style="stop-color:#ffffff;stop-opacity:1"
             id="stop970" />
          <stop
             path="c 0,23.4117  0,46.8234  0,70.2352"
             style="stop-color:#000000;stop-opacity:1"
             id="stop972" />
          <stop
             path="c -36.9788,0  -73.9576,0  -110.936,0"
             style="stop-color:#ffffff;stop-opacity:1"
             id="stop974" />
          <stop
             path="c 0,-23.4117  0,-46.8234  0,-70.2352"
             style="stop-color:#000000;stop-opacity:1"
             id="stop976" />
        </meshpatch>
      </meshrow>
    </meshgradient>
  </defs>
  <sodipodi:namedview
     id="base"
     pagecolor="#ffffff"
     bordercolor="#666666"
     borderopacity="1.0"
     inkscape:pageopacity="0.0"
     inkscape:pageshadow="2"
     inkscape:zoom="0.35"
     inkscape:cx="400"
     inkscape:cy="560"
     inkscape:document-units="mm"
     inkscape:current-layer="layer6"
     inkscape:document-rotation="0"
     showgrid="false"
     inkscape:window-width="1267"
     inkscape:window-height="728"
     inkscape:window-x="83"
     inkscape:window-y="0"
     inkscape:window-maximized="0" />
  <metadata
     id="metadata910">
    <rdf:RDF>
      <cc:Work
         rdf:about="">
        <dc:format>image/svg+xml</dc:format>
        <dc:type
           rdf:resource="http://purl.org/dc/dcmitype/StillImage" />
        <dc:title></dc:title>
      </cc:Work>
    </rdf:RDF>
  </metadata>
  <g
     inkscape:groupmode="layer"
     id="layer4"
     inkscape:label="road" />
  <g
     inkscape:groupmode="layer"
     id="layer6"
     inkscape:label="lake">
    <rect
       style="fill:#2080e0;fill-opacity:1;stroke:#000000;stroke-width:0.1"
       id="rect938"
       width="267.60715"
       height="353.78571"
       x="-27.970238"
       y="-16.630953"
       ry="6.803575" />
    <path
       style="fill:#0040ff;fill-opacity:1;stroke:#000000;stroke-width:0.1"
       id="path958"
       d="m 6.3426085,120.8362 c 0.025543,1.75708 0.085336,3.46746 0.467913,5.18813 0.706329,2.63182 2.3786234,4.71541 4.5578505,6.28119 4.763066,1.76144 9.957564,0.95095 14.766082,-0.1993 6.738972,-2.02076 13.202674,-5.59993 16.825653,-11.64895 1.731886,-3.92577 6.81477,-5.6543 -7.597304,3.51089 -0.179552,0.11418 0.403511,-0.19018 0.615326,-0.16989 0.844838,0.0809 1.513048,0.77212 2.241573,1.20749 3.933905,2.50563 8.167312,4.41112 12.613182,5.78879 2.347363,0.60706 4.89966,1.14282 7.320833,0.58487 0.590611,-0.13611 1.155388,-0.36669 1.733082,-0.55004 6.858582,-3.12005 13.575339,-6.68743 18.019694,-12.81953 0.315267,-0.32459 0.597294,-0.68516 0.945803,-0.97376 0.277016,-0.2294 0.611285,-0.37918 0.916927,-0.56876 -2.870327,1.69603 -5.766612,3.34889 -8.610984,5.0881 -0.186631,0.11412 0.405186,-0.19363 0.623687,-0.20421 0.675256,-0.0327 1.244751,0.29526 1.841531,0.54303 2.364785,1.28642 4.545643,2.95014 7.323662,3.20755 2.257798,0.20921 4.43942,-0.16931 6.665409,-0.43579 7.361333,-1.3946 14.414832,-4.26892 20.128252,-9.38524 1.19685,-0.9796 1.25425,-2.73708 2.19457,-3.87469 0.10812,-0.13081 0.59281,-0.33073 0.44476,-0.24778 -3.20254,1.79436 -6.40547,3.588 -9.60821,5.38199 0.51018,0.65667 0.77912,1.87198 1.38437,2.43654 1.89334,1.76605 4.94007,2.8599 7.28492,3.84823 4.4243,1.60549 8.44468,2.39653 13.12729,2.12529 4.9502,-1.02864 10.37996,-3.29992 13.41185,-7.43191 0.3294,-0.44892 0.57588,-0.95325 0.87448,-1.42323 2.86203,-3.0226 -0.36791,0.44868 -9.26538,5.20828 -0.1097,0.0587 -0.23573,-0.3925 -0.25765,-0.27003 -0.0484,0.27008 0.80797,2.92858 0.88303,3.18828 1.16387,2.40834 2.75904,4.8614 5.26096,6.06313 0.48907,0.23492 1.01908,0.37283 1.52862,0.55924 3.90716,0.87789 7.93029,0.98272 11.89373,0.51329 5.58511,-1.19988 9.57641,-4.32511 14.73274,-7.39581 1.26874,-0.75555 2.34956,-1.93277 3.32487,-3.01957 1.40256,-1.06845 1.90304,-2.9319 3.26493,-3.99852 -3.07491,1.81624 -6.20837,3.53681 -9.22471,5.44873 -0.15976,0.10126 0.38851,-0.0257 0.56605,0.0396 0.46143,0.16956 0.89237,0.41482 1.32178,0.65413 0.57517,0.32052 1.11297,0.70543 1.68929,1.02387 2.00497,1.10781 2.98763,1.5001 5.11606,2.4665 6.43541,2.18386 13.12589,3.06929 19.88716,3.23847 2.92854,0.0773 5.82522,-0.0413 8.66143,-0.80079 4.79258,-1.75499 8.99865,-4.80935 13.35956,-7.37652 0,0 -10.24386,4.02697 -10.24386,4.02697 v 0 c 16.10392,-9.17598 9.2485,-5.05474 5.50262,-3.32054 -2.82439,1.01695 -5.78605,1.14487 -8.76673,1.28117 -6.72721,0.20708 -13.44124,-0.27519 -19.78253,-2.75016 -2.45898,-1.19084 -4.12703,-2.09408 -6.32139,-3.68656 -0.38505,-0.27944 -0.78935,-0.53212 -1.16962,-0.81805 -0.30018,-0.22572 -0.52735,-0.86907 -0.87019,-0.71573 -3.48931,1.56063 -6.67703,3.72299 -10.01555,5.58448 -0.94448,1.35333 -1.8346,2.74894 -3.03527,3.90117 -0.85252,0.84555 -0.97471,1.01962 -1.97599,1.77578 -0.41893,0.31638 -1.75503,1.14834 -1.29273,0.89958 15.05825,-8.10241 7.41486,-3.80625 3.76997,-2.81566 -3.7947,0.62209 -7.65793,0.48351 -11.43908,-0.22873 -3.1817,-0.95231 -4.96281,-2.581 -6.19586,-5.71563 -0.31787,-1.4618 -0.28427,-1.16012 -0.47197,-2.5384 -0.0374,-0.27494 -0.0187,-0.56076 -0.0982,-0.82661 -1.40838,-4.71225 -8.55348,1.17795 -10.50617,4.87601 -0.31852,0.49153 -0.43066,0.71778 -0.88124,1.15006 -0.22106,0.21208 -0.9828,0.72527 -0.71357,0.57913 16.10968,-8.74456 9.73381,-5.04895 6.15982,-3.77232 -1.83209,0.22168 -3.69733,0.4598 -5.54707,0.28594 -2.59472,-0.24389 -5.14002,-1.00424 -7.61827,-1.76045 -2.04433,-0.82801 -4.95195,-1.80123 -6.50229,-3.47639 -0.79242,-0.85621 -0.82685,-2.29293 -1.43612,-3.25756 -3.35662,1.7251 -6.76164,3.3591 -10.06986,5.17528 -0.144431,0.0793 -0.121274,0.30653 -0.188984,0.45673 -0.121753,0.27009 -0.245398,0.53952 -0.379251,0.80383 -0.497279,0.98194 -1.036682,1.90947 -1.910696,2.61025 -3.321159,2.42228 -1.883191,1.32058 7.127941,-3.897 0.51016,-0.29539 -1.03061,0.57605 -1.56934,0.8154 -2.34979,1.04399 -4.867213,1.64966 -7.351749,2.26638 -2.75567,0.41101 -5.782762,1.0796 -8.526846,0.14496 -1.68579,-0.57419 -3.032238,-1.92107 -4.513686,-2.84655 -0.573042,-0.29527 -2.263158,-1.54566 -2.98193,-1.1752 -5.253657,2.70773 -8.726609,3.71082 -11.784931,7.61468 -1.104736,1.43776 -2.250628,2.73068 -3.664267,3.88315 -0.538412,0.43894 -2.291517,1.55859 -1.672638,1.24309 0.07574,-0.0386 11.569017,-6.51431 5.693145,-3.20379 -0.502832,0.21779 -0.986099,0.48792 -1.508498,0.65338 -2.342874,0.74203 -4.823886,0.32044 -7.169771,-0.1327 -4.43324,-1.07301 -8.720032,-2.70385 -12.392544,-5.47785 -0.204475,-0.17549 -2.795873,-2.50308 -3.303471,-2.24578 -7.858551,3.98356 -8.630388,3.17682 -10.991172,7.85155 -0.767773,1.17026 -1.56722,2.30969 -2.632901,3.23814 -0.437795,0.38142 -1.906725,1.31554 -1.391343,1.04809 11.046796,-5.73246 9.45456,-4.99608 5.500643,-3.42551 -4.502373,1.32904 -9.311544,2.19367 -13.896338,0.70389 -2.065997,-1.27961 -3.563643,-3.14963 -4.088142,-5.56394 -0.295493,-1.69297 -0.245788,-3.39911 -0.143428,-5.11111 0,0 -9.9933545,5.09186 -9.9933545,5.09186 z" />
    <path
       style="fill:#0040ff;fill-opacity:1;stroke:#000000;stroke-width:0.1"
       id="path960"
       d="m 23.432169,95.441991 c 1.677008,1.891049 3.467216,3.59497 5.457817,5.155029 2.925953,2.26681 5.280935,3.76959 9.103781,2.52454 0.621202,-0.20231 1.188868,-0.54211 1.783302,-0.81317 3.56363,-2.16222 7.182379,-4.236099 10.690894,-6.486648 0.337794,-0.216678 2.737273,-2.466795 3.042711,-2.745772 1.44716,-1.321786 2.853148,-2.657662 4.232532,-4.05041 1.006766,-0.956321 1.599737,-1.582608 2.703642,-2.399385 0.360775,-0.266938 1.519806,-0.954741 1.131705,-0.729369 -2.852277,1.68039 -5.704554,3.360777 -8.556832,5.041167 0.518928,-0.217135 0.297651,-0.153916 0.648484,-0.236887 0.822983,0.520539 1.274326,1.47913 2.012677,2.07703 2.229718,1.80558 4.898337,2.762358 7.541427,3.756228 6.313207,1.661563 12.787032,3.369133 19.361993,3.290856 5.136386,-1.02557 10.322933,-3.7266 13.828879,-7.640314 0.833417,-1.078384 0.405369,-0.566381 1.279515,-1.53987 0.239564,-0.326488 0.662347,-0.961634 1.008499,-1.23974 0.115443,-0.09275 0.529473,-0.265096 0.400238,-0.192799 -2.437072,1.363334 -10.050217,2.823157 -9.623203,5.605801 1.257872,3.295722 4.428003,4.934416 7.497842,6.192612 3.388348,0.48528 8.749328,1.11632 11.923308,-0.58395 3.6144,-1.936192 7.12752,-4.055801 10.69128,-6.0837 1.96127,-1.662229 3.03613,-3.998838 4.34008,-6.144432 0.14831,-0.174686 0.24535,-0.41148 0.44494,-0.524057 0.1289,-0.0727 0.5727,-0.04889 0.44336,0.02302 -3.22683,1.794166 -6.56249,3.387439 -9.79276,5.17539 -0.0957,0.05297 0.36249,1.08054 0.58568,1.64931 1.92359,3.098302 4.25828,4.221723 7.71011,5.001696 2.67868,0.495643 5.40242,0.551913 8.11718,0.547983 4.05454,-0.64972 8.0663,-1.819277 11.82512,-3.484903 4.56536,-2.023022 12.2799,-6.98827 14.88938,-8.53999 1.93395,-1.339694 3.63656,-3.046815 5.58077,-4.371973 0.24471,-0.166798 1.05601,-0.535897 0.79831,-0.389958 -9.41461,5.331584 -6.25805,6.985283 -9.56182,5.20292 -0.0634,1.463397 -0.19769,2.922246 -0.28548,4.384265 -0.29716,2.057788 0.89184,3.240211 2.51524,4.254904 2.37708,1.488813 5.17533,1.70805 7.91118,1.766972 4.17838,-0.113204 8.2819,-0.947025 12.23493,-2.269786 4.64967,-2.007118 2.48527,-1.017466 11.49745,-6.513412 0.82251,-0.501599 1.63724,-1.805932 2.49322,-2.455116 0.23739,-0.144873 0.47479,-0.289745 0.71218,-0.434618 0,0 -10.27276,4.054893 -10.27276,4.054893 v 0 c -0.23248,0.189082 -0.46496,0.378161 -0.69743,0.567243 -0.53986,0.57295 -1.07253,1.164159 -1.68082,1.667145 -0.24325,0.201136 -1.03209,0.722902 -0.75547,0.570881 2.4244,-1.332392 12.07832,-6.843448 7.21142,-4.107585 -3.85413,1.536454 -7.89777,2.540987 -12.06542,2.639507 -2.51174,-0.03449 -5.13086,-0.149873 -7.33422,-1.489361 -1.55726,-0.836498 -2.10195,-1.371573 -1.88547,-3.210266 0.10498,-1.611484 0.36159,-3.238487 0.1905,-4.849246 -0.14361,-0.296495 -0.12501,-1.012002 -0.43082,-0.889484 -3.50856,1.405641 -6.76853,3.367129 -10.11917,5.116139 -0.59701,0.311639 -1.01486,0.88578 -1.53311,1.31586 -1.5452,1.282338 -2.31719,1.845263 -3.99234,3.130984 1.92532,-1.041731 3.86054,-2.065369 5.77597,-3.125187 1.06211,-0.587671 -2.11484,1.197446 -3.2158,1.708626 -2.82144,1.310013 -5.90347,2.314239 -8.94473,2.965903 -0.66126,0.141692 -1.33431,0.221334 -2.00147,0.332002 -2.72316,0.05984 -5.45956,0.131357 -8.16723,-0.229024 -3.11079,-0.560485 -5.24876,-1.274095 -6.85217,-4.204575 -0.0265,-0.08956 -0.63071,-2.232152 -0.69059,-2.209202 -11.73476,4.497506 -8.42322,1.544235 -10.72353,5.712626 -1.09961,2.083499 -2.32698,4.15816 -4.31767,5.511427 2.58287,-1.458989 5.19909,-2.860445 7.7486,-4.376968 0.55883,-0.332404 -1.15464,0.609553 -1.76968,0.820537 -3.12295,1.071306 -6.53286,0.871786 -9.74722,0.467341 -2.72595,-1.053271 -5.75353,-2.414569 -6.456002,-5.564716 -1.334855,-5.654882 -9.293709,1.897202 -11.779104,5.376349 -0.477631,0.551336 -0.770806,0.918779 -1.308251,1.419635 -0.237001,0.220866 -1.027369,0.780637 -0.741408,0.628393 2.835585,-1.509633 5.599581,-3.150118 8.407877,-4.709935 0.40495,-0.224922 -0.775857,0.513302 -1.197518,0.705072 -0.49553,0.225365 -1.027401,0.360291 -1.5411,0.540436 -6.582195,0.756293 -13.201181,-0.735637 -19.4751,-2.646778 -2.352397,-0.991841 -4.767427,-1.913594 -6.6641,-3.698992 -0.775105,-0.729633 -1.222833,-1.763519 -1.972929,-2.517745 -0.220663,-0.189138 -0.393505,-0.456147 -0.661993,-0.567415 -0.231569,-0.09597 -0.530469,-0.136202 -0.751777,-0.0185 -5.601152,2.979357 -9.732401,4.876335 -13.787273,9.066316 -1.839502,1.830221 -3.715036,3.629776 -5.686637,5.318855 -3.345987,2.866524 -4.234137,2.757544 5.929633,-2.821651 -1.619491,0.990184 -3.397906,2.06017 -5.410221,1.837568 -1.800476,-0.199171 -3.307514,-1.586794 -4.731187,-2.54199 -1.829567,-1.560756 -3.469044,-3.247866 -4.903155,-5.182809 0,0 -9.618686,5.708206 -9.618686,5.708206 z" />
    <path
       style="fill:#0040ff;fill-opacity:1;stroke:#000000;stroke-width:0.1"
       id="path962"
       d="m 45.808092,72.57598 c 1.41826,2.613708 4.08069,4.007297 6.58567,5.392539 3.150997,1.479907 6.592869,2.649762 10.130994,2.317893 0.781275,-0.07328 1.543925,-0.281668 2.315887,-0.4225 5.442027,-1.907212 10.24477,-5.316 15.168679,-8.218532 0.514117,-0.303062 2.035818,-1.246003 1.518176,-0.949005 -8.962101,5.142026 -10.859701,5.943653 -7.20421,4.325257 1.420281,-0.491487 2.198529,0.777888 3.135969,1.621922 1.056047,0.696 2.072029,1.989286 3.395617,2.198386 0.440759,0.06963 0.892419,-0.0079 1.338628,-0.01188 5.0932,-1.607572 10.124519,-4.369689 13.820719,-8.282665 0.540314,-0.572003 1.032161,-1.188387 1.569712,-1.762985 2.457087,-3.209446 8.847727,-6.711905 -6.944973,3.388413 -0.250807,0.160403 0.574444,-0.189529 0.87214,-0.192503 0.421542,-0.0042 0.835361,0.114181 1.253041,0.171273 3.45709,1.288087 6.491467,3.448372 9.734089,5.172493 2.6631,1.270561 5.40856,2.234284 8.34106,1.281184 0.65058,-0.211448 1.25432,-0.546386 1.88148,-0.819579 10.67584,-6.200373 7.70182,-3.678703 12.27789,-7.49563 0.44351,-0.36994 0.8669,-0.764889 1.32645,-1.114713 0.38598,-0.293812 1.62678,-1.055915 1.20661,-0.813528 -8.9787,5.179536 -11.3473,5.776262 -7.41307,4.651277 0.28752,0.03664 0.58616,0.02268 0.86257,0.109924 1.50958,0.476475 2.8735,1.445466 4.19564,2.279232 1.70983,1.078251 1.22235,0.775446 2.98782,1.754973 2.52149,1.332214 5.42547,2.171758 8.23862,1.255406 0.59236,-0.192956 1.14101,-0.500584 1.71152,-0.750877 6.79406,-4.055798 8.31944,-3.877421 11.9609,-7.605205 1.65612,-1.695376 2.474,-2.740294 4.51548,-4.042664 -14.33577,8.259382 -9.51633,4.659011 -5.36251,4.378926 1.3099,-0.08833 2.56757,0.06615 3.85368,0.28349 3.29474,0.825172 6.70681,0.995871 10.08646,0.85003 2.55625,-0.138311 4.81783,-1.143159 7.02123,-2.387346 3.87069,-2.185646 7.6915,-4.458462 11.53724,-6.687693 0,0 -9.57205,3.686043 -9.57205,3.686043 v 0 c 13.01515,-7.404886 4.33161,-2.085036 1.48294,-1.269876 -0.60456,0.172998 -1.23997,0.210098 -1.85996,0.315148 -3.27498,0.299776 -6.55918,0.113477 -9.74701,-0.751687 -7.67699,-1.643948 -9.51478,0.92224 -17.58005,5.581084 -1.5948,1.241433 -2.84984,2.743401 -4.32761,4.10849 -2.7856,2.573178 -5.51379,3.434971 6.35888,-3.150857 -1.07763,0.608666 -1.90899,1.187775 -3.1348,1.463995 -2.13182,0.480375 -4.27084,-0.282858 -6.1772,-1.161166 -2.00373,-1.052356 -3.90076,-2.28781 -5.81566,-3.493423 -0.44167,-0.278075 -0.84808,-0.613278 -1.30602,-0.863653 -0.35124,-0.192038 -0.74025,-0.304996 -1.11037,-0.457494 -5.09581,-0.136538 -1.15679,-0.231463 -11.50072,5.897885 -0.36905,0.218684 -2.1301,1.720234 -2.37035,1.907403 -0.4875,0.379782 -2.04017,1.385861 -1.49229,1.100021 2.53559,-1.322859 4.98048,-2.812717 7.47072,-4.219075 -0.93093,0.498747 -2.40986,1.384948 -3.48539,1.605155 -2.06888,0.423588 -4.21538,-0.66944 -6.10064,-1.31265 -3.35023,-1.627156 -6.39792,-3.7792 -9.72831,-5.448049 -0.4469,-0.174591 -0.87677,-0.401365 -1.34068,-0.523772 -4.811579,-1.269592 -9.87573,3.832244 -12.922283,7.56194 -0.794488,0.887651 -1.579518,1.754624 -2.51787,2.49728 -0.348388,0.27573 -1.471922,0.990703 -1.080548,0.780399 10.885286,-5.849114 10.760845,-5.751102 7.047233,-4.0915 -0.29895,0.151839 -0.564674,0.409834 -0.896848,0.455517 -0.9369,0.128849 -2.433865,-1.409629 -3.136881,-1.903563 -1.223717,-0.979475 -2.150904,-2.600082 -3.898197,-2.50475 -4.889584,1.421789 -0.997084,0.198059 -11.474346,6.325685 -0.486363,0.284451 -1.920277,1.178195 -1.426705,0.906452 2.464498,-1.356855 4.885026,-2.792294 7.341806,-4.163074 1.36856,-0.763598 -5.485029,3.30117 -4.182149,2.14802 -0.724337,0.18696 -1.434187,0.443577 -2.17301,0.560883 -3.348881,0.531717 -6.702798,-0.564717 -9.718878,-1.908255 -2.157082,-1.203857 -4.741678,-2.430044 -5.681679,-4.887187 0,0 -9.862283,5.333325 -9.862283,5.333325 z" />
    <text
       xml:space="preserve"
       style="font-style:normal;font-weight:normal;font-size:21.1667px;line-height:1.25;font-family:sans-serif;fill:#000000;fill-opacity:1;stroke:#000000;stroke-width:0.35;stroke-opacity:1;stroke-miterlimit:4;stroke-dasharray:none"
       x="46.113091"
       y="142.11903"
       id="text948"><tspan
         sodipodi:role="line"
         id="tspan946"
         x="46.113091"
         y="142.11903"
         style="font-style:normal;font-variant:normal;font-weight:normal;font-stretch:normal;font-size:21.1667px;font-family:serif;-inkscape-font-specification:serif;fill:#ffffff;fill-opacity:1;stroke-width:0.35;stroke:#000000;stroke-opacity:1;stroke-miterlimit:4;stroke-dasharray:none">Clayten Bruce</tspan></text>
    <text
       xml:space="preserve"
       style="font-style:normal;font-weight:normal;font-size:28.741px;line-height:0.56;font-family:sans-serif;fill:#000000;fill-opacity:1;stroke:#000000;stroke-width:0.5;stroke-opacity:1;stroke-miterlimit:4;stroke-dasharray:none"
       x="92.31575"
       y="32.441624"
       id="text942"
       transform="scale(1.178338,0.84865295)"><tspan
         sodipodi:role="line"
         id="tspan940"
         x="92.31575"
         y="32.441624"
         style="font-style:normal;font-variant:normal;font-weight:bold;font-stretch:normal;font-size:28.741px;font-family:serif;-inkscape-font-specification:'serif Bold';text-align:center;text-anchor:middle;fill:#ffffff;fill-opacity:1;stroke:#000000;stroke-width:0.5;stroke-opacity:1;stroke-miterlimit:4;stroke-dasharray:none">The Path</tspan><tspan
         sodipodi:role="line"
         x="92.31575"
         y="49.369854"
         style="font-style:normal;font-variant:normal;font-weight:bold;font-stretch:normal;font-size:28.741px;font-family:serif;-inkscape-font-specification:'serif Bold';text-align:center;text-anchor:middle;fill:#ffffff;fill-opacity:1;stroke:#000000;stroke-width:0.5;stroke-opacity:1;stroke-miterlimit:4;stroke-dasharray:none"
         id="tspan944"><tspan
   style="font-size:22.7843px;stroke:#000000;stroke-width:0.5;stroke-opacity:1;stroke-miterlimit:4;stroke-dasharray:none"
   id="tspan952">          <tspan
   style="font-size:19.7556px;stroke-width:0.5;stroke-miterlimit:4;stroke-dasharray:none"
   id="tspan978">or the</tspan></tspan> </tspan><tspan
         sodipodi:role="line"
         x="92.31575"
         y="66.298088"
         style="font-style:normal;font-variant:normal;font-weight:bold;font-stretch:normal;font-size:28.741px;font-family:serif;-inkscape-font-specification:'serif Bold';text-align:center;text-anchor:middle;fill:#ffffff;fill-opacity:1;stroke:#000000;stroke-width:0.5;stroke-opacity:1;stroke-miterlimit:4;stroke-dasharray:none"
         id="tspan950">Journey</tspan></text>
  </g>
  <g
     inkscape:groupmode="layer"
     id="layer5"
     inkscape:label="ground">
    <path
       style="fill:#605020;stroke:#000000;stroke-width:0.264583px;stroke-linecap:butt;stroke-linejoin:miter;stroke-opacity:1;fill-opacity:1"
       d="m -20.410714,161.77381 259.291664,1.5119 27.21429,172.35714 -325.059524,-0.75595 z"
       id="path935" />
  </g>
  <g
     inkscape:label="trees"
     inkscape:groupmode="layer"
     id="layer1">
    <path
       style="fill:#008000;fill-opacity:1;stroke:#000000;stroke-width:0.28127px;stroke-linecap:butt;stroke-linejoin:miter;stroke-opacity:1"
       d="M 28.726192,302.35298 68.035716,310.04177 52.916668,204.10713 Z"
       id="path915" />
    <path
       style="fill:#808080;stroke:#000000;stroke-width:0.264583px;stroke-linecap:butt;stroke-linejoin:miter;stroke-opacity:1;fill-opacity:1"
       d="M 63.499999,335.64285 H 129.26786 L 116.41667,162.52976 H 90.714284 L 65.011905,332.61905 Z"
       id="path932" />
    <path
       style="fill:#209000;fill-opacity:1;stroke:#000000;stroke-width:0.264583px;stroke-linecap:butt;stroke-linejoin:miter;stroke-opacity:1"
       d="m 47.624999,313.72024 35.529766,-1.5119 -14.3631,-95.25 z"
       id="path917" />
    <path
       style="fill:#209010;fill-opacity:1;stroke:#000000;stroke-width:0.264583px;stroke-linecap:butt;stroke-linejoin:miter;stroke-opacity:1"
       d="m 9.8273794,312.20833 37.7976196,1.51191 -9.82738,-86.17858 z"
       id="path919" />
    <path
       style="fill:#207010;fill-opacity:1;stroke:#000000;stroke-width:0.264583px;stroke-linecap:butt;stroke-linejoin:miter;stroke-opacity:1"
       d="M -10.583336,309.94048 32.505954,309.18452 12.851184,207.8869 Z"
       id="path921" />
    <path
       style="fill:#40a040;fill-opacity:1;stroke:#000000;stroke-width:0.264583px;stroke-linecap:butt;stroke-linejoin:miter;stroke-opacity:1"
       d="m 139.85119,310.69643 42.33333,3.02381 -17.3869,-105.83334 z"
       id="path923" />
    <path
       style="fill:#608020;fill-opacity:1;stroke:#000000;stroke-width:0.264583px;stroke-linecap:butt;stroke-linejoin:miter;stroke-opacity:1"
       d="m 158.75,324.30357 41.57738,-3.02381 -19.65476,-108.10119 z"
       id="path925" />
    <path
       style="fill:#60a020;fill-opacity:1;stroke:#000000;stroke-width:0.264583px;stroke-linecap:butt;stroke-linejoin:miter;stroke-opacity:1"
       d="M 114.14881,321.27976 158.75,324.30357 142.11905,216.95833 Z"
       id="path927" />
    <path
       style="fill:#20a040;fill-opacity:1;stroke:#000000;stroke-width:0.264583px;stroke-linecap:butt;stroke-linejoin:miter;stroke-opacity:1"
       d="m 182.18452,313.72024 40.82143,3.02381 -13.60715,-105.07738 z"
       id="path929" />
  </g>
  <script
     id="mesh_polyfill"
     type="text/javascript">
!function(){const t=&quot;http://www.w3.org/2000/svg&quot;,e=&quot;http://www.w3.org/1999/xlink&quot;,s=&quot;http://www.w3.org/1999/xhtml&quot;,r=2;if(document.createElementNS(t,&quot;meshgradient&quot;).x)return;const n=(t,e,s,r)=&gt;{let n=new x(.5*(e.x+s.x),.5*(e.y+s.y)),o=new x(.5*(t.x+e.x),.5*(t.y+e.y)),i=new x(.5*(s.x+r.x),.5*(s.y+r.y)),a=new x(.5*(n.x+o.x),.5*(n.y+o.y)),h=new x(.5*(n.x+i.x),.5*(n.y+i.y)),l=new x(.5*(a.x+h.x),.5*(a.y+h.y));return[[t,o,a,l],[l,h,i,r]]},o=t=&gt;{let e=t[0].distSquared(t[1]),s=t[2].distSquared(t[3]),r=.25*t[0].distSquared(t[2]),n=.25*t[1].distSquared(t[3]),o=e&gt;s?e:s,i=r&gt;n?r:n;return 18*(o&gt;i?o:i)},i=(t,e)=&gt;Math.sqrt(t.distSquared(e)),a=(t,e)=&gt;t.scale(2/3).add(e.scale(1/3)),h=t=&gt;{let e,s,r,n,o,i,a,h=new g;return t.match(/(\w+\(\s*[^)]+\))+/g).forEach(t=&gt;{let l=t.match(/[\w.-]+/g),d=l.shift();switch(d){case&quot;translate&quot;:2===l.length?e=new g(1,0,0,1,l[0],l[1]):(console.error(&quot;mesh.js: translate does not have 2 arguments!&quot;),e=new g(1,0,0,1,0,0)),h=h.append(e);break;case&quot;scale&quot;:1===l.length?s=new g(l[0],0,0,l[0],0,0):2===l.length?s=new g(l[0],0,0,l[1],0,0):(console.error(&quot;mesh.js: scale does not have 1 or 2 arguments!&quot;),s=new g(1,0,0,1,0,0)),h=h.append(s);break;case&quot;rotate&quot;:if(3===l.length&amp;&amp;(e=new g(1,0,0,1,l[1],l[2]),h=h.append(e)),l[0]){r=l[0]*Math.PI/180;let t=Math.cos(r),e=Math.sin(r);Math.abs(t)&lt;1e-16&amp;&amp;(t=0),Math.abs(e)&lt;1e-16&amp;&amp;(e=0),a=new g(t,e,-e,t,0,0),h=h.append(a)}else console.error(&quot;math.js: No argument to rotate transform!&quot;);3===l.length&amp;&amp;(e=new g(1,0,0,1,-l[1],-l[2]),h=h.append(e));break;case&quot;skewX&quot;:l[0]?(r=l[0]*Math.PI/180,n=Math.tan(r),o=new g(1,0,n,1,0,0),h=h.append(o)):console.error(&quot;math.js: No argument to skewX transform!&quot;);break;case&quot;skewY&quot;:l[0]?(r=l[0]*Math.PI/180,n=Math.tan(r),i=new g(1,n,0,1,0,0),h=h.append(i)):console.error(&quot;math.js: No argument to skewY transform!&quot;);break;case&quot;matrix&quot;:6===l.length?h=h.append(new g(...l)):console.error(&quot;math.js: Incorrect number of arguments for matrix!&quot;);break;default:console.error(&quot;mesh.js: Unhandled transform type: &quot;+d)}}),h},l=t=&gt;{let e=[],s=t.split(/[ ,]+/);for(let t=0,r=s.length-1;t&lt;r;t+=2)e.push(new x(parseFloat(s[t]),parseFloat(s[t+1])));return e},d=(t,e)=&gt;{for(let s in e)t.setAttribute(s,e[s])},c=(t,e,s,r,n)=&gt;{let o,i,a=[0,0,0,0];for(let h=0;h&lt;3;++h)e[h]&lt;t[h]&amp;&amp;e[h]&lt;s[h]||t[h]&lt;e[h]&amp;&amp;s[h]&lt;e[h]?a[h]=0:(a[h]=.5*((e[h]-t[h])/r+(s[h]-e[h])/n),o=Math.abs(3*(e[h]-t[h])/r),i=Math.abs(3*(s[h]-e[h])/n),a[h]&gt;o?a[h]=o:a[h]&gt;i&amp;&amp;(a[h]=i));return a},u=[[1,0,0,0,0,0,0,0,0,0,0,0,0,0,0,0],[0,0,0,0,1,0,0,0,0,0,0,0,0,0,0,0],[-3,3,0,0,-2,-1,0,0,0,0,0,0,0,0,0,0],[2,-2,0,0,1,1,0,0,0,0,0,0,0,0,0,0],[0,0,0,0,0,0,0,0,1,0,0,0,0,0,0,0],[0,0,0,0,0,0,0,0,0,0,0,0,1,0,0,0],[0,0,0,0,0,0,0,0,-3,3,0,0,-2,-1,0,0],[0,0,0,0,0,0,0,0,2,-2,0,0,1,1,0,0],[-3,0,3,0,0,0,0,0,-2,0,-1,0,0,0,0,0],[0,0,0,0,-3,0,3,0,0,0,0,0,-2,0,-1,0],[9,-9,-9,9,6,3,-6,-3,6,-6,3,-3,4,2,2,1],[-6,6,6,-6,-3,-3,3,3,-4,4,-2,2,-2,-2,-1,-1],[2,0,-2,0,0,0,0,0,1,0,1,0,0,0,0,0],[0,0,0,0,2,0,-2,0,0,0,0,0,1,0,1,0],[-6,6,6,-6,-4,-2,4,2,-3,3,-3,3,-2,-1,-2,-1],[4,-4,-4,4,2,2,-2,-2,2,-2,2,-2,1,1,1,1]],f=t=&gt;{let e=[];for(let s=0;s&lt;16;++s){e[s]=0;for(let r=0;r&lt;16;++r)e[s]+=u[s][r]*t[r]}return e},p=(t,e,s)=&gt;{const r=e*e,n=s*s,o=e*e*e,i=s*s*s;return t[0]+t[1]*e+t[2]*r+t[3]*o+t[4]*s+t[5]*s*e+t[6]*s*r+t[7]*s*o+t[8]*n+t[9]*n*e+t[10]*n*r+t[11]*n*o+t[12]*i+t[13]*i*e+t[14]*i*r+t[15]*i*o},y=t=&gt;{let e=[],s=[],r=[];for(let s=0;s&lt;4;++s)e[s]=[],e[s][0]=n(t[0][s],t[1][s],t[2][s],t[3][s]),e[s][1]=[],e[s][1].push(...n(...e[s][0][0])),e[s][1].push(...n(...e[s][0][1])),e[s][2]=[],e[s][2].push(...n(...e[s][1][0])),e[s][2].push(...n(...e[s][1][1])),e[s][2].push(...n(...e[s][1][2])),e[s][2].push(...n(...e[s][1][3]));for(let t=0;t&lt;8;++t){s[t]=[];for(let r=0;r&lt;4;++r)s[t][r]=[],s[t][r][0]=n(e[0][2][t][r],e[1][2][t][r],e[2][2][t][r],e[3][2][t][r]),s[t][r][1]=[],s[t][r][1].push(...n(...s[t][r][0][0])),s[t][r][1].push(...n(...s[t][r][0][1])),s[t][r][2]=[],s[t][r][2].push(...n(...s[t][r][1][0])),s[t][r][2].push(...n(...s[t][r][1][1])),s[t][r][2].push(...n(...s[t][r][1][2])),s[t][r][2].push(...n(...s[t][r][1][3]))}for(let t=0;t&lt;8;++t){r[t]=[];for(let e=0;e&lt;8;++e)r[t][e]=[],r[t][e][0]=s[t][0][2][e],r[t][e][1]=s[t][1][2][e],r[t][e][2]=s[t][2][2][e],r[t][e][3]=s[t][3][2][e]}return r};class x{constructor(t,e){this.x=t||0,this.y=e||0}toString(){return`(x=${this.x}, y=${this.y})`}clone(){return new x(this.x,this.y)}add(t){return new x(this.x+t.x,this.y+t.y)}scale(t){return void 0===t.x?new x(this.x*t,this.y*t):new x(this.x*t.x,this.y*t.y)}distSquared(t){let e=this.x-t.x,s=this.y-t.y;return e*e+s*s}transform(t){let e=this.x*t.a+this.y*t.c+t.e,s=this.x*t.b+this.y*t.d+t.f;return new x(e,s)}}class g{constructor(t,e,s,r,n,o){void 0===t?(this.a=1,this.b=0,this.c=0,this.d=1,this.e=0,this.f=0):(this.a=t,this.b=e,this.c=s,this.d=r,this.e=n,this.f=o)}toString(){return`affine: ${this.a} ${this.c} ${this.e} \n       ${this.b} ${this.d} ${this.f}`}append(t){t instanceof g||console.error(&quot;mesh.js: argument to Affine.append is not affine!&quot;);let e=this.a*t.a+this.c*t.b,s=this.b*t.a+this.d*t.b,r=this.a*t.c+this.c*t.d,n=this.b*t.c+this.d*t.d,o=this.a*t.e+this.c*t.f+this.e,i=this.b*t.e+this.d*t.f+this.f;return new g(e,s,r,n,o,i)}}class w{constructor(t,e){this.nodes=t,this.colors=e}paintCurve(t,e){if(o(this.nodes)&gt;r){const s=n(...this.nodes);let r=[[],[]],o=[[],[]];for(let t=0;t&lt;4;++t)r[0][t]=this.colors[0][t],r[1][t]=(this.colors[0][t]+this.colors[1][t])/2,o[0][t]=r[1][t],o[1][t]=this.colors[1][t];let i=new w(s[0],r),a=new w(s[1],o);i.paintCurve(t,e),a.paintCurve(t,e)}else{let s=Math.round(this.nodes[0].x);if(s&gt;=0&amp;&amp;s&lt;e){let r=4*(~~this.nodes[0].y*e+s);t[r]=Math.round(this.colors[0][0]),t[r+1]=Math.round(this.colors[0][1]),t[r+2]=Math.round(this.colors[0][2]),t[r+3]=Math.round(this.colors[0][3])}}}}class m{constructor(t,e){this.nodes=t,this.colors=e}split(){let t=[[],[],[],[]],e=[[],[],[],[]],s=[[[],[]],[[],[]]],r=[[[],[]],[[],[]]];for(let s=0;s&lt;4;++s){const r=n(this.nodes[0][s],this.nodes[1][s],this.nodes[2][s],this.nodes[3][s]);t[0][s]=r[0][0],t[1][s]=r[0][1],t[2][s]=r[0][2],t[3][s]=r[0][3],e[0][s]=r[1][0],e[1][s]=r[1][1],e[2][s]=r[1][2],e[3][s]=r[1][3]}for(let t=0;t&lt;4;++t)s[0][0][t]=this.colors[0][0][t],s[0][1][t]=this.colors[0][1][t],s[1][0][t]=(this.colors[0][0][t]+this.colors[1][0][t])/2,s[1][1][t]=(this.colors[0][1][t]+this.colors[1][1][t])/2,r[0][0][t]=s[1][0][t],r[0][1][t]=s[1][1][t],r[1][0][t]=this.colors[1][0][t],r[1][1][t]=this.colors[1][1][t];return[new m(t,s),new m(e,r)]}paint(t,e){let s,n=!1;for(let t=0;t&lt;4;++t)if((s=o([this.nodes[0][t],this.nodes[1][t],this.nodes[2][t],this.nodes[3][t]]))&gt;r){n=!0;break}if(n){let s=this.split();s[0].paint(t,e),s[1].paint(t,e)}else{new w([...this.nodes[0]],[...this.colors[0]]).paintCurve(t,e)}}}class b{constructor(t){this.readMesh(t),this.type=t.getAttribute(&quot;type&quot;)||&quot;bilinear&quot;}readMesh(t){let e=[[]],s=[[]],r=Number(t.getAttribute(&quot;x&quot;)),n=Number(t.getAttribute(&quot;y&quot;));e[0][0]=new x(r,n);let o=t.children;for(let t=0,r=o.length;t&lt;r;++t){e[3*t+1]=[],e[3*t+2]=[],e[3*t+3]=[],s[t+1]=[];let r=o[t].children;for(let n=0,o=r.length;n&lt;o;++n){let o=r[n].children;for(let r=0,i=o.length;r&lt;i;++r){let i=r;0!==t&amp;&amp;++i;let h,d=o[r].getAttribute(&quot;path&quot;),c=&quot;l&quot;;null!=d&amp;&amp;(c=(h=d.match(/\s*([lLcC])\s*(.*)/))[1]);let u=l(h[2]);switch(c){case&quot;l&quot;:0===i?(e[3*t][3*n+3]=u[0].add(e[3*t][3*n]),e[3*t][3*n+1]=a(e[3*t][3*n],e[3*t][3*n+3]),e[3*t][3*n+2]=a(e[3*t][3*n+3],e[3*t][3*n])):1===i?(e[3*t+3][3*n+3]=u[0].add(e[3*t][3*n+3]),e[3*t+1][3*n+3]=a(e[3*t][3*n+3],e[3*t+3][3*n+3]),e[3*t+2][3*n+3]=a(e[3*t+3][3*n+3],e[3*t][3*n+3])):2===i?(0===n&amp;&amp;(e[3*t+3][3*n+0]=u[0].add(e[3*t+3][3*n+3])),e[3*t+3][3*n+1]=a(e[3*t+3][3*n],e[3*t+3][3*n+3]),e[3*t+3][3*n+2]=a(e[3*t+3][3*n+3],e[3*t+3][3*n])):(e[3*t+1][3*n]=a(e[3*t][3*n],e[3*t+3][3*n]),e[3*t+2][3*n]=a(e[3*t+3][3*n],e[3*t][3*n]));break;case&quot;L&quot;:0===i?(e[3*t][3*n+3]=u[0],e[3*t][3*n+1]=a(e[3*t][3*n],e[3*t][3*n+3]),e[3*t][3*n+2]=a(e[3*t][3*n+3],e[3*t][3*n])):1===i?(e[3*t+3][3*n+3]=u[0],e[3*t+1][3*n+3]=a(e[3*t][3*n+3],e[3*t+3][3*n+3]),e[3*t+2][3*n+3]=a(e[3*t+3][3*n+3],e[3*t][3*n+3])):2===i?(0===n&amp;&amp;(e[3*t+3][3*n+0]=u[0]),e[3*t+3][3*n+1]=a(e[3*t+3][3*n],e[3*t+3][3*n+3]),e[3*t+3][3*n+2]=a(e[3*t+3][3*n+3],e[3*t+3][3*n])):(e[3*t+1][3*n]=a(e[3*t][3*n],e[3*t+3][3*n]),e[3*t+2][3*n]=a(e[3*t+3][3*n],e[3*t][3*n]));break;case&quot;c&quot;:0===i?(e[3*t][3*n+1]=u[0].add(e[3*t][3*n]),e[3*t][3*n+2]=u[1].add(e[3*t][3*n]),e[3*t][3*n+3]=u[2].add(e[3*t][3*n])):1===i?(e[3*t+1][3*n+3]=u[0].add(e[3*t][3*n+3]),e[3*t+2][3*n+3]=u[1].add(e[3*t][3*n+3]),e[3*t+3][3*n+3]=u[2].add(e[3*t][3*n+3])):2===i?(e[3*t+3][3*n+2]=u[0].add(e[3*t+3][3*n+3]),e[3*t+3][3*n+1]=u[1].add(e[3*t+3][3*n+3]),0===n&amp;&amp;(e[3*t+3][3*n+0]=u[2].add(e[3*t+3][3*n+3]))):(e[3*t+2][3*n]=u[0].add(e[3*t+3][3*n]),e[3*t+1][3*n]=u[1].add(e[3*t+3][3*n]));break;case&quot;C&quot;:0===i?(e[3*t][3*n+1]=u[0],e[3*t][3*n+2]=u[1],e[3*t][3*n+3]=u[2]):1===i?(e[3*t+1][3*n+3]=u[0],e[3*t+2][3*n+3]=u[1],e[3*t+3][3*n+3]=u[2]):2===i?(e[3*t+3][3*n+2]=u[0],e[3*t+3][3*n+1]=u[1],0===n&amp;&amp;(e[3*t+3][3*n+0]=u[2])):(e[3*t+2][3*n]=u[0],e[3*t+1][3*n]=u[1]);break;default:console.error(&quot;mesh.js: &quot;+c+&quot; invalid path type.&quot;)}if(0===t&amp;&amp;0===n||r&gt;0){let e=window.getComputedStyle(o[r]).stopColor.match(/^rgb\s*\(\s*(\d+)\s*,\s*(\d+)\s*,\s*(\d+)\s*\)$/i),a=window.getComputedStyle(o[r]).stopOpacity,h=255;a&amp;&amp;(h=Math.floor(255*a)),e&amp;&amp;(0===i?(s[t][n]=[],s[t][n][0]=Math.floor(e[1]),s[t][n][1]=Math.floor(e[2]),s[t][n][2]=Math.floor(e[3]),s[t][n][3]=h):1===i?(s[t][n+1]=[],s[t][n+1][0]=Math.floor(e[1]),s[t][n+1][1]=Math.floor(e[2]),s[t][n+1][2]=Math.floor(e[3]),s[t][n+1][3]=h):2===i?(s[t+1][n+1]=[],s[t+1][n+1][0]=Math.floor(e[1]),s[t+1][n+1][1]=Math.floor(e[2]),s[t+1][n+1][2]=Math.floor(e[3]),s[t+1][n+1][3]=h):3===i&amp;&amp;(s[t+1][n]=[],s[t+1][n][0]=Math.floor(e[1]),s[t+1][n][1]=Math.floor(e[2]),s[t+1][n][2]=Math.floor(e[3]),s[t+1][n][3]=h))}}e[3*t+1][3*n+1]=new x,e[3*t+1][3*n+2]=new x,e[3*t+2][3*n+1]=new x,e[3*t+2][3*n+2]=new x,e[3*t+1][3*n+1].x=(-4*e[3*t][3*n].x+6*(e[3*t][3*n+1].x+e[3*t+1][3*n].x)+-2*(e[3*t][3*n+3].x+e[3*t+3][3*n].x)+3*(e[3*t+3][3*n+1].x+e[3*t+1][3*n+3].x)+-1*e[3*t+3][3*n+3].x)/9,e[3*t+1][3*n+2].x=(-4*e[3*t][3*n+3].x+6*(e[3*t][3*n+2].x+e[3*t+1][3*n+3].x)+-2*(e[3*t][3*n].x+e[3*t+3][3*n+3].x)+3*(e[3*t+3][3*n+2].x+e[3*t+1][3*n].x)+-1*e[3*t+3][3*n].x)/9,e[3*t+2][3*n+1].x=(-4*e[3*t+3][3*n].x+6*(e[3*t+3][3*n+1].x+e[3*t+2][3*n].x)+-2*(e[3*t+3][3*n+3].x+e[3*t][3*n].x)+3*(e[3*t][3*n+1].x+e[3*t+2][3*n+3].x)+-1*e[3*t][3*n+3].x)/9,e[3*t+2][3*n+2].x=(-4*e[3*t+3][3*n+3].x+6*(e[3*t+3][3*n+2].x+e[3*t+2][3*n+3].x)+-2*(e[3*t+3][3*n].x+e[3*t][3*n+3].x)+3*(e[3*t][3*n+2].x+e[3*t+2][3*n].x)+-1*e[3*t][3*n].x)/9,e[3*t+1][3*n+1].y=(-4*e[3*t][3*n].y+6*(e[3*t][3*n+1].y+e[3*t+1][3*n].y)+-2*(e[3*t][3*n+3].y+e[3*t+3][3*n].y)+3*(e[3*t+3][3*n+1].y+e[3*t+1][3*n+3].y)+-1*e[3*t+3][3*n+3].y)/9,e[3*t+1][3*n+2].y=(-4*e[3*t][3*n+3].y+6*(e[3*t][3*n+2].y+e[3*t+1][3*n+3].y)+-2*(e[3*t][3*n].y+e[3*t+3][3*n+3].y)+3*(e[3*t+3][3*n+2].y+e[3*t+1][3*n].y)+-1*e[3*t+3][3*n].y)/9,e[3*t+2][3*n+1].y=(-4*e[3*t+3][3*n].y+6*(e[3*t+3][3*n+1].y+e[3*t+2][3*n].y)+-2*(e[3*t+3][3*n+3].y+e[3*t][3*n].y)+3*(e[3*t][3*n+1].y+e[3*t+2][3*n+3].y)+-1*e[3*t][3*n+3].y)/9,e[3*t+2][3*n+2].y=(-4*e[3*t+3][3*n+3].y+6*(e[3*t+3][3*n+2].y+e[3*t+2][3*n+3].y)+-2*(e[3*t+3][3*n].y+e[3*t][3*n+3].y)+3*(e[3*t][3*n+2].y+e[3*t+2][3*n].y)+-1*e[3*t][3*n].y)/9}}this.nodes=e,this.colors=s}paintMesh(t,e){let s=(this.nodes.length-1)/3,r=(this.nodes[0].length-1)/3;if(&quot;bilinear&quot;===this.type||s&lt;2||r&lt;2){let n;for(let o=0;o&lt;s;++o)for(let s=0;s&lt;r;++s){let r=[];for(let t=3*o,e=3*o+4;t&lt;e;++t)r.push(this.nodes[t].slice(3*s,3*s+4));let i=[];i.push(this.colors[o].slice(s,s+2)),i.push(this.colors[o+1].slice(s,s+2)),(n=new m(r,i)).paint(t,e)}}else{let n,o,a,h,l,d,u;const x=s,g=r;s++,r++;let w=new Array(s);for(let t=0;t&lt;s;++t){w[t]=new Array(r);for(let e=0;e&lt;r;++e)w[t][e]=[],w[t][e][0]=this.nodes[3*t][3*e],w[t][e][1]=this.colors[t][e]}for(let t=0;t&lt;s;++t)for(let e=0;e&lt;r;++e)0!==t&amp;&amp;t!==x&amp;&amp;(n=i(w[t-1][e][0],w[t][e][0]),o=i(w[t+1][e][0],w[t][e][0]),w[t][e][2]=c(w[t-1][e][1],w[t][e][1],w[t+1][e][1],n,o)),0!==e&amp;&amp;e!==g&amp;&amp;(n=i(w[t][e-1][0],w[t][e][0]),o=i(w[t][e+1][0],w[t][e][0]),w[t][e][3]=c(w[t][e-1][1],w[t][e][1],w[t][e+1][1],n,o));for(let t=0;t&lt;r;++t){w[0][t][2]=[],w[x][t][2]=[];for(let e=0;e&lt;4;++e)n=i(w[1][t][0],w[0][t][0]),o=i(w[x][t][0],w[x-1][t][0]),w[0][t][2][e]=n&gt;0?2*(w[1][t][1][e]-w[0][t][1][e])/n-w[1][t][2][e]:0,w[x][t][2][e]=o&gt;0?2*(w[x][t][1][e]-w[x-1][t][1][e])/o-w[x-1][t][2][e]:0}for(let t=0;t&lt;s;++t){w[t][0][3]=[],w[t][g][3]=[];for(let e=0;e&lt;4;++e)n=i(w[t][1][0],w[t][0][0]),o=i(w[t][g][0],w[t][g-1][0]),w[t][0][3][e]=n&gt;0?2*(w[t][1][1][e]-w[t][0][1][e])/n-w[t][1][3][e]:0,w[t][g][3][e]=o&gt;0?2*(w[t][g][1][e]-w[t][g-1][1][e])/o-w[t][g-1][3][e]:0}for(let s=0;s&lt;x;++s)for(let r=0;r&lt;g;++r){let n=i(w[s][r][0],w[s+1][r][0]),o=i(w[s][r+1][0],w[s+1][r+1][0]),c=i(w[s][r][0],w[s][r+1][0]),x=i(w[s+1][r][0],w[s+1][r+1][0]),g=[[],[],[],[]];for(let t=0;t&lt;4;++t){(d=[])[0]=w[s][r][1][t],d[1]=w[s+1][r][1][t],d[2]=w[s][r+1][1][t],d[3]=w[s+1][r+1][1][t],d[4]=w[s][r][2][t]*n,d[5]=w[s+1][r][2][t]*n,d[6]=w[s][r+1][2][t]*o,d[7]=w[s+1][r+1][2][t]*o,d[8]=w[s][r][3][t]*c,d[9]=w[s+1][r][3][t]*x,d[10]=w[s][r+1][3][t]*c,d[11]=w[s+1][r+1][3][t]*x,d[12]=0,d[13]=0,d[14]=0,d[15]=0,u=f(d);for(let e=0;e&lt;9;++e){g[t][e]=[];for(let s=0;s&lt;9;++s)g[t][e][s]=p(u,e/8,s/8),g[t][e][s]&gt;255?g[t][e][s]=255:g[t][e][s]&lt;0&amp;&amp;(g[t][e][s]=0)}}h=[];for(let t=3*s,e=3*s+4;t&lt;e;++t)h.push(this.nodes[t].slice(3*r,3*r+4));l=y(h);for(let s=0;s&lt;8;++s)for(let r=0;r&lt;8;++r)(a=new m(l[s][r],[[[g[0][s][r],g[1][s][r],g[2][s][r],g[3][s][r]],[g[0][s][r+1],g[1][s][r+1],g[2][s][r+1],g[3][s][r+1]]],[[g[0][s+1][r],g[1][s+1][r],g[2][s+1][r],g[3][s+1][r]],[g[0][s+1][r+1],g[1][s+1][r+1],g[2][s+1][r+1],g[3][s+1][r+1]]]])).paint(t,e)}}}transform(t){if(t instanceof x)for(let e=0,s=this.nodes.length;e&lt;s;++e)for(let s=0,r=this.nodes[0].length;s&lt;r;++s)this.nodes[e][s]=this.nodes[e][s].add(t);else if(t instanceof g)for(let e=0,s=this.nodes.length;e&lt;s;++e)for(let s=0,r=this.nodes[0].length;s&lt;r;++s)this.nodes[e][s]=this.nodes[e][s].transform(t)}scale(t){for(let e=0,s=this.nodes.length;e&lt;s;++e)for(let s=0,r=this.nodes[0].length;s&lt;r;++s)this.nodes[e][s]=this.nodes[e][s].scale(t)}}document.querySelectorAll(&quot;rect,circle,ellipse,path,text&quot;).forEach((r,n)=&gt;{let o=r.getAttribute(&quot;id&quot;);o||(o=&quot;patchjs_shape&quot;+n,r.setAttribute(&quot;id&quot;,o));const i=r.style.fill.match(/^url\(\s*&quot;?\s*#([^\s&quot;]+)&quot;?\s*\)/),a=r.style.stroke.match(/^url\(\s*&quot;?\s*#([^\s&quot;]+)&quot;?\s*\)/);if(i&amp;&amp;i[1]){const a=document.getElementById(i[1]);if(a&amp;&amp;&quot;meshgradient&quot;===a.nodeName){const i=r.getBBox();let l=document.createElementNS(s,&quot;canvas&quot;);d(l,{width:i.width,height:i.height});const c=l.getContext(&quot;2d&quot;);let u=c.createImageData(i.width,i.height);const f=new b(a);&quot;objectBoundingBox&quot;===a.getAttribute(&quot;gradientUnits&quot;)&amp;&amp;f.scale(new x(i.width,i.height));const p=a.getAttribute(&quot;gradientTransform&quot;);null!=p&amp;&amp;f.transform(h(p)),&quot;userSpaceOnUse&quot;===a.getAttribute(&quot;gradientUnits&quot;)&amp;&amp;f.transform(new x(-i.x,-i.y)),f.paintMesh(u.data,l.width),c.putImageData(u,0,0);const y=document.createElementNS(t,&quot;image&quot;);d(y,{width:i.width,height:i.height,x:i.x,y:i.y});let g=l.toDataURL();y.setAttributeNS(e,&quot;xlink:href&quot;,g),r.parentNode.insertBefore(y,r),r.style.fill=&quot;none&quot;;const w=document.createElementNS(t,&quot;use&quot;);w.setAttributeNS(e,&quot;xlink:href&quot;,&quot;#&quot;+o);const m=&quot;patchjs_clip&quot;+n,M=document.createElementNS(t,&quot;clipPath&quot;);M.setAttribute(&quot;id&quot;,m),M.appendChild(w),r.parentElement.insertBefore(M,r),y.setAttribute(&quot;clip-path&quot;,&quot;url(#&quot;+m+&quot;)&quot;),u=null,l=null,g=null}}if(a&amp;&amp;a[1]){const o=document.getElementById(a[1]);if(o&amp;&amp;&quot;meshgradient&quot;===o.nodeName){const i=parseFloat(r.style.strokeWidth.slice(0,-2))*(parseFloat(r.style.strokeMiterlimit)||parseFloat(r.getAttribute(&quot;stroke-miterlimit&quot;))||1),a=r.getBBox(),l=Math.trunc(a.width+i),c=Math.trunc(a.height+i),u=Math.trunc(a.x-i/2),f=Math.trunc(a.y-i/2);let p=document.createElementNS(s,&quot;canvas&quot;);d(p,{width:l,height:c});const y=p.getContext(&quot;2d&quot;);let g=y.createImageData(l,c);const w=new b(o);&quot;objectBoundingBox&quot;===o.getAttribute(&quot;gradientUnits&quot;)&amp;&amp;w.scale(new x(l,c));const m=o.getAttribute(&quot;gradientTransform&quot;);null!=m&amp;&amp;w.transform(h(m)),&quot;userSpaceOnUse&quot;===o.getAttribute(&quot;gradientUnits&quot;)&amp;&amp;w.transform(new x(-u,-f)),w.paintMesh(g.data,p.width),y.putImageData(g,0,0);const M=document.createElementNS(t,&quot;image&quot;);d(M,{width:l,height:c,x:0,y:0});let S=p.toDataURL();M.setAttributeNS(e,&quot;xlink:href&quot;,S);const k=&quot;pattern_clip&quot;+n,A=document.createElementNS(t,&quot;pattern&quot;);d(A,{id:k,patternUnits:&quot;userSpaceOnUse&quot;,width:l,height:c,x:u,y:f}),A.appendChild(M),o.parentNode.appendChild(A),r.style.stroke=&quot;url(#&quot;+k+&quot;)&quot;,g=null,p=null,S=null}}})}();
</script>
</svg>
