<?xml version="1.0" encoding="UTF-8" standalone="no"?>
<svg
   xmlns:dc="http://purl.org/dc/elements/1.1/"
   xmlns:cc="http://creativecommons.org/ns#"
   xmlns:rdf="http://www.w3.org/1999/02/22-rdf-syntax-ns#"
   xmlns:svg="http://www.w3.org/2000/svg"
   xmlns="http://www.w3.org/2000/svg"
   xmlns:xlink="http://www.w3.org/1999/xlink"
   xmlns:sodipodi="http://sodipodi.sourceforge.net/DTD/sodipodi-0.dtd"
   xmlns:inkscape="http://www.inkscape.org/namespaces/inkscape"
   width="210mm"
   height="297mm"
   viewBox="0 0 210 297"
   version="1.1"
   id="svg173"
   inkscape:version="1.0.1 (3bc2e813f5, 2020-09-07)"
   sodipodi:docname="Early Birds Club Book Cover.svg">
  <defs
     id="defs167">
    <linearGradient
       inkscape:collect="always"
       id="linearGradient298">
      <stop
         style="stop-color:#729fcf;stop-opacity:1"
         offset="0"
         id="stop294" />
      <stop
         style="stop-color:#fce94f;stop-opacity:0;"
         offset="1"
         id="stop296" />
    </linearGradient>
    <filter
       inkscape:collect="always"
       style="color-interpolation-filters:sRGB"
       id="filter270"
       x="-0.016517866"
       width="1.0330357"
       y="-0.026261316"
       height="1.0525226">
      <feGaussianBlur
         inkscape:collect="always"
         stdDeviation="1.6336792"
         id="feGaussianBlur272" />
    </filter>
    <linearGradient
       inkscape:collect="always"
       xlink:href="#linearGradient298"
       id="linearGradient300"
       x1="71.815475"
       y1="282.7262"
       x2="113.39286"
       y2="44.601189"
       gradientUnits="userSpaceOnUse" />
  </defs>
  <sodipodi:namedview
     id="base"
     pagecolor="#ffffff"
     bordercolor="#666666"
     borderopacity="1.0"
     inkscape:pageopacity="0.0"
     inkscape:pageshadow="2"
     inkscape:zoom="0.35"
     inkscape:cx="305.44056"
     inkscape:cy="530.44994"
     inkscape:document-units="mm"
     inkscape:current-layer="layer5"
     inkscape:document-rotation="0"
     showgrid="false"
     inkscape:window-width="1366"
     inkscape:window-height="705"
     inkscape:window-x="-8"
     inkscape:window-y="-8"
     inkscape:window-maximized="1" />
  <metadata
     id="metadata170">
    <rdf:RDF>
      <cc:Work
         rdf:about="">
        <dc:format>image/svg+xml</dc:format>
        <dc:type
           rdf:resource="http://purl.org/dc/dcmitype/StillImage" />
        <dc:title></dc:title>
      </cc:Work>
    </rdf:RDF>
  </metadata>
  <g
     inkscape:groupmode="layer"
     id="layer5"
     inkscape:label="sky">
    <rect
       style="fill:url(#linearGradient300);stroke:#000000;stroke-width:0.499999;fill-opacity:1"
       id="rect292"
       width="282.7262"
       height="340.93451"
       x="-33.261906"
       y="-18.142857"
       ry="6.803575" />
  </g>
  <g
     inkscape:groupmode="layer"
     id="layer3"
     inkscape:label="branch"
     style="filter:url(#filter270)">
    <path
       style="fill:#8f5902;stroke:#000000;stroke-width:0.264583px;stroke-linecap:butt;stroke-linejoin:miter;stroke-opacity:1"
       d="m -9.8273808,223.38392 51.7827378,3.77977 37.419642,7.18155 34.017861,6.04761 34.39583,1.88989 52.16071,1.88988 22.67857,2.26785 0.75595,33.63988 -31.74999,-5.29167 -30.99405,-1.51191 -23.8125,-0.37796 -40.065475,-4.53572 -21.922621,-4.53571 -24.946427,-4.91369 -23.8125,-3.40179 -19.6547619,-0.75595 -20.4107141,0.37797 z"
       id="path178" />
    <path
       style="fill:#8f5902;stroke:#000000;stroke-width:0.264583px;stroke-linecap:butt;stroke-linejoin:miter;stroke-opacity:1"
       d="m 27.970239,203.35119 -7.181549,25.3244 7.9375,1.51191 1.511904,-13.60715 3.401787,-12.47321 -2.267857,-15.875 -3.401785,1.13393 z"
       id="path180" />
    <path
       style="fill:#73d216;stroke:#000000;stroke-width:0.264583px;stroke-linecap:butt;stroke-linejoin:miter;stroke-opacity:1"
       d="m 27.970239,189.36607 3.401785,-1.13393 4.535715,-13.22917 c 0.813243,-5.41766 1.64448,-10.83531 0,-16.25297 -0.739528,-4.92934 -0.477194,-9.71556 -4.535715,-15.11905 -1.78111,-4.50707 -4.39908,-8.84677 -8.693452,-12.85119 -4.382932,4.02798 -5.971813,10.2912 -7.937499,16.25297 -1.677032,5.31776 -1.203187,9.2016 -1.511905,13.60715 -0.37153,5.12153 2.266111,9.49199 4.91369,13.60715 z"
       id="path182"
       sodipodi:nodetypes="cccccccccc" />
    <path
       style="fill:#000000;stroke:#000000;stroke-width:0.499999"
       id="path196"
       d="m 30.920081,182.96963 c -0.104696,-1.15506 -0.182221,-2.31256 -0.252378,-3.47096 -0.246814,-3.22904 -0.315611,-6.47029 -0.239136,-9.70722 -0.0081,-1.07766 0.18473,-2.15095 0.157255,-3.22865 -0.0074,-0.29183 -0.05507,-0.73219 -0.08366,-1.02674 -0.02643,-0.16596 -0.04539,-0.33329 -0.0793,-0.49788 -0.0895,-0.43443 -0.172182,-0.64624 -0.292393,-1.07329 -0.188008,-0.66791 -0.355166,-1.33783 -0.553162,-2.00326 -0.442592,-1.60662 -0.815091,-3.23102 -1.211519,-4.84929 -0.219464,-0.78595 -0.291367,-1.5951 -0.341125,-2.40579 -0.02188,-0.73483 -0.0067,-1.47468 -0.07857,-2.20733 -0.0039,-0.0403 -0.169243,-1.18398 -0.176832,-1.23664 -0.08825,-0.90606 -0.421399,-1.7491 -0.644234,-2.62207 -0.253963,-1.42486 -0.627372,-2.82463 -0.931121,-4.23929 -0.21379,-0.89144 -0.451593,-1.77598 -0.553449,-2.6886 -0.04982,-0.49382 -0.04322,-0.99069 -0.03796,-1.48625 -0.05491,-0.45129 -0.194875,-0.88989 -0.361422,-1.31152 -0.06606,-0.15763 -0.102522,-0.32346 -0.136496,-0.49005 0,0 -2.44365,1.31298 -2.44365,1.31298 v 0 c 0.04273,0.1799 0.08779,0.3591 0.163267,0.52886 0.162583,0.38597 0.303416,0.79092 0.317726,1.21347 0.0054,0.50257 0.01935,1.00598 0.08642,1.50479 0.155289,0.89922 0.43288,1.76292 0.709191,2.63126 0.350888,1.41882 0.659792,2.848 0.820843,4.30256 0.202445,0.86479 0.588221,1.67775 0.691098,2.56913 0.173133,1.13866 0.226495,2.28224 0.209597,3.43375 0.0046,0.88582 0.07425,1.61234 0.393396,2.45112 0.510347,1.57678 0.945292,3.1771 1.287973,4.79915 0.251383,1.20459 0.607959,2.38526 0.799007,3.60014 0.161322,1.36131 0.123383,2.73033 0.17258,4.09873 0.09989,3.25424 0.302961,6.51157 0.134847,9.7676 -0.0019,1.20063 0.06377,2.40575 -0.02471,3.60403 0,0 2.497902,-1.27274 2.497902,-1.27274 z" />
    <path
       style="fill:#000000;stroke:#000000;stroke-width:0.499999"
       id="path250"
       d="m 29.866164,175.3593 c -0.710687,-1.66373 -1.983068,-3.01194 -3.198739,-4.31928 -1.549587,-1.60096 -3.385818,-2.85748 -5.264458,-4.03356 0,0 -1.489537,0.15373 -1.489537,0.15373 v 0 c 1.93386,1.1229 3.814044,2.3536 5.367699,3.98272 1.150505,1.27927 2.35402,2.62071 2.925404,4.27596 0,0 1.659631,-0.0596 1.659631,-0.0596 z" />
    <path
       style="fill:#000000;stroke:#000000;stroke-width:0.499999"
       id="path252"
       d="m 28.362346,160.32306 c -0.328425,-0.19497 -0.61487,-0.45526 -0.911225,-0.69551 -0.310803,-0.2809 -0.692989,-0.44924 -1.057695,-0.64444 -0.342864,-0.20253 -0.582697,-0.5168 -0.920192,-0.72611 -0.07403,-0.0352 -0.146549,-0.0739 -0.222104,-0.1057 -0.22925,-0.0966 -0.468737,-0.16738 -0.698945,-0.2617 -0.629304,-0.2578 -1.225676,-0.57954 -1.824212,-0.90029 -0.778046,-0.42896 -1.570195,-0.83149 -2.347609,-1.26141 0,0 -1.579903,0.17048 -1.579903,0.17048 v 0 c 0.796123,0.42154 1.607994,0.81277 2.392769,1.25603 0.854382,0.47388 1.707943,0.95577 2.634545,1.27582 0.356412,0.18793 0.588632,0.49516 0.91307,0.728 0.351801,0.20963 0.753516,0.33783 1.061503,0.61849 0.173562,0.13349 0.341272,0.27354 0.511905,0.41058 0.09342,0.075 0.167427,0.17255 0.262105,0.24599 0.03244,0.0252 0.07345,0.0367 0.110181,0.055 0,0 1.675807,-0.16523 1.675807,-0.16523 z" />
    <path
       style="fill:#000000;stroke:#000000;stroke-width:0.499999"
       id="path254"
       d="m 26.253651,147.84611 c -0.800752,-0.0457 -1.538402,-0.40596 -2.23154,-0.77957 -0.784364,-0.45488 -1.503092,-0.99744 -2.100982,-1.67925 0,0 -1.610817,0.11696 -1.610817,0.11696 v 0 c 0.619939,0.69335 1.355288,1.25034 2.153476,1.72745 0.666188,0.39547 1.357243,0.74342 2.128496,0.87754 0,0 1.661367,-0.26313 1.661367,-0.26313 z" />
    <path
       style="fill:#000000;stroke:#000000;stroke-width:0.499999"
       id="path256"
       d="m 26.964595,146.98124 c 0.13049,-0.54174 0.285506,-1.07696 0.436028,-1.6135 0.138012,-0.52361 0.356483,-1.00781 0.6253,-1.47566 0.21572,-0.35517 0.309234,-0.76049 0.423958,-1.15502 0.116729,-0.30089 0.316203,-0.54845 0.42618,-0.85214 0.02151,-0.0408 0.043,-0.0816 0.06451,-0.12246 0,0 -1.668983,-0.0764 -1.668983,-0.0764 v 0 c -0.02117,0.0459 -0.04234,0.0918 -0.06351,0.13764 -0.121873,0.29797 -0.326102,0.55393 -0.417907,0.86618 -0.112125,0.38231 -0.204348,0.77382 -0.414383,1.11786 -0.263162,0.48188 -0.469404,0.98319 -0.60949,1.51536 -0.147931,0.52971 -0.292534,1.06361 -0.479751,1.58026 0,0 1.678051,0.0779 1.678051,0.0779 z" />
    <path
       style="fill:#000000;stroke:#000000;stroke-width:0.499999"
       id="path262"
       d="m 28.493852,159.22001 c 0.337595,-1.07816 0.792914,-2.11725 1.207656,-3.16771 0.305594,-0.6721 0.53236,-1.37395 0.798449,-2.06111 0.09304,-0.39731 0.195704,-0.78424 0.355478,-1.15978 0.115197,-0.31372 0.241184,-0.62851 0.448551,-0.89322 0.119864,-0.21246 0.33781,-0.31252 0.488453,-0.49888 0,0 -1.668121,-0.1218 -1.668121,-0.1218 v 0 c -0.16813,0.16808 -0.370817,0.30134 -0.48591,0.51735 -0.189389,0.28959 -0.328732,0.60594 -0.445641,0.93117 -0.153053,0.3789 -0.243271,0.77265 -0.346218,1.1671 -0.237484,0.68795 -0.42831,1.39183 -0.719505,2.06103 -0.402304,1.06213 -0.832736,2.11352 -1.300734,3.14848 0,0 1.667542,0.0774 1.667542,0.0774 z" />
    <path
       style="fill:#000000;stroke:#000000;stroke-width:0.499999"
       id="path268"
       d="m 30.156258,174.36618 c 0.173879,-0.46986 0.291079,-0.9603 0.461039,-1.43146 0.23771,-0.66606 0.587283,-1.2726 0.960393,-1.86925 0.31859,-0.56222 0.641202,-1.11423 1.005607,-1.64796 0.222829,-0.41929 0.536006,-0.77149 0.833533,-1.13592 0.26829,-0.3022 0.648194,-0.36083 1.014177,-0.47375 0.479771,-0.24648 0.750649,-0.72321 1.021892,-1.16846 0.153871,-0.28043 0.36775,-0.489 0.594275,-0.70576 0,0 -1.663263,-0.1343 -1.663263,-0.1343 v 0 c -0.230788,0.22239 -0.415407,0.47162 -0.576427,0.74961 -0.259212,0.42154 -0.526539,0.86513 -1.011605,1.04857 -0.394732,0.11502 -0.77642,0.22994 -1.038238,0.57047 -0.296834,0.36502 -0.576231,0.74217 -0.810718,1.15129 -0.365183,0.53345 -0.662183,1.1022 -0.995,1.65553 -0.376989,0.60743 -0.713047,1.23597 -0.973648,1.90328 -0.17262,0.48061 -0.291513,0.97961 -0.50301,1.44692 0,0 1.680993,0.0412 1.680993,0.0412 z" />
  </g>
  <g
     inkscape:groupmode="layer"
     id="layer4"
     inkscape:label="claws">
    <path
       style="fill:#fce94f;stroke:#000000;stroke-width:0.264583px;stroke-linecap:butt;stroke-linejoin:miter;stroke-opacity:1"
       d="m 108.24416,215.15197 6.94901,2.40542 -7.21628,20.84703 7.21628,8.55262 1.06907,6.94901 -4.81085,-6.1472 -6.1472,-8.01809 0.53454,10.15625 -1.33634,3.74177 -1.06908,-4.81085 -1.33635,-8.55263 -3.741774,6.68174 -3.207234,2.93997 1.336347,-6.1472 5.879931,-7.21628 2.93996,-2.93997 4.81085,-15.50163 z"
       id="path275" />
    <path
       style="fill:#fce94f;stroke:#000000;stroke-width:0.264583px;stroke-linecap:butt;stroke-linejoin:miter;stroke-opacity:1"
       d="m 98.015197,210.64081 3.814493,2.64027 -13.096207,21.38156 2.939963,6.1472 -2.138156,9.88897 -1.069078,-5.34539 v -4.27631 l -2.672694,-5.87993 -2.939965,7.48355 -1.336347,5.34539 -1.069078,-7.48355 1.870884,-5.34539 -6.147196,3.20724 -2.138156,6.14719 -1.069081,-7.75081 11.225321,-4.81085 z"
       id="path277"
       sodipodi:nodetypes="ccccccccccccccccc" />
    <text
       xml:space="preserve"
       style="font-style:normal;font-weight:normal;font-size:29.6333px;line-height:0.75;font-family:sans-serif;fill:#000000;fill-opacity:1;stroke:none;stroke-width:0.264583"
       x="111.12499"
       y="58.964283"
       id="text281"><tspan
         sodipodi:role="line"
         id="tspan279"
         x="111.12499"
         y="58.964283"
         style="font-style:normal;font-variant:normal;font-weight:normal;font-stretch:normal;font-size:29.6333px;font-family:serif;-inkscape-font-specification:serif;stroke-width:0.264583">Early</tspan><tspan
         sodipodi:role="line"
         x="111.12499"
         y="81.921478"
         style="font-style:normal;font-variant:normal;font-weight:normal;font-stretch:normal;font-size:29.6333px;font-family:serif;-inkscape-font-specification:serif;stroke-width:0.264583"
         id="tspan283">Birds</tspan><tspan
         sodipodi:role="line"
         x="111.12499"
         y="104.87868"
         style="font-style:normal;font-variant:normal;font-weight:normal;font-stretch:normal;font-size:29.6333px;font-family:serif;-inkscape-font-specification:serif;stroke-width:0.264583"
         id="tspan285"> Club</tspan></text>
    <text
       xml:space="preserve"
       style="font-style:normal;font-weight:normal;font-size:21.1667px;line-height:1.25;font-family:sans-serif;fill:#000000;fill-opacity:1;stroke:none;stroke-width:0.264583"
       x="24.190475"
       y="33.261879"
       id="text289"><tspan
         sodipodi:role="line"
         id="tspan287"
         x="24.190475"
         y="33.261879"
         style="font-style:normal;font-variant:normal;font-weight:normal;font-stretch:normal;font-size:21.1667px;font-family:serif;-inkscape-font-specification:serif;stroke-width:0.264583">Thomas Thomason</tspan></text>
  </g>
  <g
     inkscape:label="bird"
     inkscape:groupmode="layer"
     id="layer1">
    <path
       style="fill:#ef2929;stroke:#000000;stroke-width:0.264583px;stroke-linecap:butt;stroke-linejoin:miter;stroke-opacity:1"
       d="m 26.458333,108.85714 31.75,19.65476 c 1.18329,7.50919 -1.895989,15.27836 -0.755952,20.78869 -0.228452,13.85913 1.777322,26.58433 7.559524,40.44346 8.945141,10.8359 18.306711,20.83895 30.238094,25.70237 8.994651,4.6676 17.991571,9.32391 27.970241,9.07143 l 10.58333,-0.75595 40.06548,38.55357 18.89881,-41.57738 -40.82143,-27.97023 c 0.95176,-7.36917 0.29293,-15.06046 -3.77977,-23.43453 -3.53107,-11.02183 -9.83787,-19.96187 -17.3869,-27.97024 -7.20865,-10.81364 -15.03409,-21.13384 -27.21429,-27.97023 -5.339723,-4.72763 -9.736824,-10.63353 -18.898804,-10.58334 0.201948,-8.970754 -0.226116,-17.731504 -3.02381,-25.702378 l 6.80357,-15.119049 -36.285712,6.803573 c -3.254287,3.617658 -3.030352,9.504224 -4.535715,17.386905 0,0 -1.069775,9.361444 0,14.363099 z"
       id="path175"
       sodipodi:nodetypes="cccccccccccccccccccc" />
  </g>
</svg>
